<svg version="1.2" baseProfile="tiny-ps" xmlns="http://www.w3.org/2000/svg" viewBox="0 0 330 220" width="1620" height="1080">
	<title>aliridof-branding-svg</title>
	<defs>
		<clipPath clipPathUnits="userSpaceOnUse" id="cp1">
			<path d="M181.54 71.73L217.09 71.73C224.03 71.73 229.64 77.34 229.64 84.28L229.64 84.28C229.64 91.23 224.03 96.84 217.09 96.84L181.54 96.84C174.6 96.84 168.99 91.23 168.99 84.28L168.99 84.28C168.99 77.34 174.6 71.73 181.54 71.73Z" />
		</clipPath>
		<clipPath clipPathUnits="userSpaceOnUse" id="cp2">
			<path d="M218.45 124.51L253.82 124.51L253.82 161.41L218.45 161.41L218.45 124.51Z" />
		</clipPath>
	</defs>
	<style>
		tspan { white-space:pre }
		.shp0 { fill: #ea80fc;stroke: #212121 } 
		.shp1 { fill: none;stroke: #212121;stroke-width: 2;stroke-dasharray: 2 } 
		.shp2 { fill: none;stroke: #212121 } 
		.shp3 { fill: none;stroke: #212121;stroke-width: 0.9 } 
		.shp4 { fill: #ffffff;stroke: #212121;stroke-linecap:round;stroke-linejoin:round } 
		.shp5 { fill: #f5f5f5;stroke: #212121 } 
		.shp6 { fill: #ffffff;stroke: #212121 } 
		.shp7 { fill: #6600ed;stroke: #212121 } 
		.shp8 { fill: #a249ff;stroke: #212121 } 
		.shp9 { display: none;fill: none;stroke: #212121 } 
	</style>
	<g id="Layer">
		<path id="Layer" class="shp0" d="M182.65 77L216.01 77C220.04 77 223.3 80.25 223.3 84.28L223.3 84.28C223.3 88.31 220.04 91.57 216.01 91.57L182.65 91.57C178.62 91.57 175.36 88.31 175.36 84.28L175.36 84.28C175.36 80.25 178.62 77 182.65 77Z" />
		<g id="Clip-Path" clip-path="url(#cp1)">
			<path id="a" class="shp1" d="M181.54 71.73L217.09 71.73C224.03 71.73 229.64 77.34 229.64 84.28L229.64 84.28C229.64 91.23 224.03 96.84 217.09 96.84L181.54 96.84C174.6 96.84 168.99 91.23 168.99 84.28L168.99 84.28C168.99 77.34 174.6 71.73 181.54 71.73Z" />
		</g>
		<g id="Layer">
			<path id="Layer" class="shp2" d="M218.95 125.01L253.32 125.01L253.32 160.91L218.95 160.91L218.95 125.01Z" />
			<g id="Clip-Path" clip-path="url(#cp2)">
				<g id="Layer">
					<path id="Layer" class="shp3" d="M94.8 138.92L288.27 138.92M178.68 97.25L178.68 228.43M254.04 97.25L254.04 228.43M187.05 97.25L187.05 228.43M262.42 97.25L262.42 228.43M195.42 97.25L195.42 228.43M270.79 97.25L270.79 228.43M203.8 97.25L203.8 228.43M279.16 97.25L279.16 228.43M212.17 97.25L212.17 228.43M287.54 97.25L287.54 228.43M220.55 97.25L220.55 228.43M170.3 97.25L170.3 228.43M245.67 97.25L245.67 228.43M161.93 97.25L161.93 228.43M237.29 97.25L237.29 228.43M153.55 97.25L153.55 228.43M228.92 97.25L228.92 228.43M145.18 96.95L145.18 228.13M136.81 96.95L136.81 228.13M128.43 96.95L128.43 228.13M120.06 96.95L120.06 228.13M111.69 96.95L111.69 228.13M103.31 96.95L103.31 228.13M94.94 96.95L94.94 228.13M94.8 130.56L288.27 130.56M94.8 122.2L288.27 122.2M94.8 113.84L288.27 113.84M94.8 105.48L288.27 105.48M94.8 97.13L288.27 97.13M94.8 147.27L288.27 147.27M94.8 155.63L288.27 155.63M94.8 163.99L288.27 163.99M94.8 172.35L288.27 172.35M94.8 180.71L288.27 180.71M94.8 189.06L288.27 189.06M94.8 197.42L288.27 197.42M94.8 205.78L288.27 205.78M94.8 214.14L288.27 214.14M94.8 222.49L288.27 222.49" />
				</g>
			</g>
		</g>
		<path id="Layer" fill-rule="evenodd" class="shp4" d="M195.32 132.81C194.1 126.64 192.78 122.61 191.37 120.71C190.13 119.05 187.64 115.51 183.88 110.07C183.66 109.75 183.5 109.39 183.41 109C183.33 108.62 183.32 108.22 183.39 107.83C183.45 107.44 183.59 107.07 183.8 106.74C184.01 106.41 184.28 106.11 184.6 105.88C184.92 105.65 185.28 105.48 185.67 105.38C186.05 105.28 186.46 105.26 186.85 105.31C187.24 105.36 187.62 105.49 187.97 105.68C188.32 105.88 188.63 106.14 188.88 106.44L193.67 112.33L193.67 87.73C193.69 86.76 194.08 85.83 194.77 85.15C195.47 84.47 196.4 84.09 197.37 84.09C198.34 84.09 199.27 84.47 199.96 85.15C200.65 85.83 201.05 86.76 201.06 87.73L201.06 107.63L201.06 100.26C201.08 99.25 201.49 98.28 202.21 97.57C202.94 96.86 203.91 96.47 204.92 96.47C205.93 96.47 206.9 96.86 207.62 97.57C208.35 98.28 208.76 99.25 208.78 100.26L208.78 107.63L208.78 101.55C208.78 100.56 209.17 99.62 209.86 98.93C210.56 98.23 211.5 97.84 212.48 97.84C213.46 97.84 214.41 98.23 215.1 98.93C215.8 99.62 216.19 100.56 216.19 101.55L216.19 108.42L216.19 104.25C216.19 103.79 216.28 103.34 216.45 102.91C216.63 102.49 216.89 102.1 217.21 101.77C217.54 101.45 217.92 101.19 218.35 101.01C218.77 100.84 219.23 100.75 219.69 100.75C220.16 100.75 220.62 100.84 221.05 101.02C221.48 101.2 221.87 101.46 222.2 101.79C222.53 102.12 222.8 102.51 222.98 102.94C223.15 103.37 223.25 103.84 223.25 104.3C223.25 110.78 222.72 115.9 221.67 119.66C221.35 120.79 221.01 121.91 220.65 123.02C220.29 124.13 219.9 125.24 219.5 126.33C219.09 127.43 218.66 128.52 218.2 129.6C217.75 130.68 217.28 131.75 216.78 132.81L195.32 132.81L195.32 132.81Z" />
		<path id="Layer" fill-rule="evenodd" class="shp5" d="M77.79 125.01L230.94 125.01L230.94 160.91L77.79 160.91L77.79 125.01Z" />
		<path id="Layer" fill-rule="evenodd" class="shp6" d="M99.7 143.02L100.96 144.32C111.56 155.28 128.74 155.28 139.34 144.32L140.6 143.02L139.34 141.72C128.74 130.76 111.56 130.76 100.95 141.72L99.69 143.02L99.7 143.02Z" />
		<path id="Layer" class="shp7" d="M120 152C115.02 152 111 147.98 111 143C111 138.02 115.02 134 120 134C124.98 134 129 138.02 129 143C129 147.98 124.98 152 120 152Z" />
		<g id="Layer">
			<path id="Layer" class="shp2" d="M156.41 136.98L209.47 136.98M156.41 148.26L209.47 148.26" />
		</g>
		<path id="Layer" fill-rule="evenodd" class="shp7" d="M85.7 102.6L109.27 102.6L109.27 124.91L85.7 124.91L85.7 102.6Z" />
		<path id="Layer" fill-rule="evenodd" class="shp8" d="M109.38 102.6L132.95 102.6L132.95 124.91L109.38 124.91L109.38 102.6Z" />
		<path id="Layer" fill-rule="evenodd" class="shp0" d="M133.06 102.6L156.63 102.6L156.63 124.91L133.06 124.91L133.06 102.6Z" />
		<path id="Layer" class="shp8" d="M245.69 141.61C244.2 141.61 242.99 140.4 242.99 138.91C242.99 137.41 244.2 136.21 245.69 136.21C247.18 136.21 248.39 137.41 248.39 138.91C248.39 140.4 247.18 141.61 245.69 141.61Z" />
		<path id="Layer" class="shp8" d="M237.07 149.71C235.58 149.71 234.37 148.5 234.37 147.01C234.37 145.51 235.58 144.31 237.07 144.31C238.57 144.31 239.77 145.51 239.77 147.01C239.77 148.5 238.57 149.71 237.07 149.71Z" />
		<g id="Layer">
			<path id="Layer" class="shp9" d="M93.54 100.23L107.31 63.16L107.98 63.16L121.75 100.23M97.7 88.49L117.33 88.49" />
			<g id="Layer" style="display: none">
				<path id="Layer" class="shp2" d="M125.23 79.69C125.59 74.89 130.11 72.42 134.27 72.42C138.43 72.42 144.06 74.04 144.06 79.69L144.06 96.34C144.06 97.38 144.52 99.64 144.69 99.97" />
				<path id="Layer" class="shp2" d="M144.09 85.32C134.28 85.39 130.3 85.3 127.13 87.91C123.96 90.52 123.51 95.1 126.31 97.84C129.11 100.57 135.35 100.91 139.14 98.33C141.68 96.61 143.34 94.54 144.14 92.1" />
			</g>
		</g>
	</g>
</svg>
